# xmcd CD database file
#
# Track frame offsets:
#	150
#	29071
#	52993
#	84899
#	109079
#	141812
#	174589
#
# Disc length: 2456 seconds
#
# Revision: 0
# Processed by: cddbd v1.5.1PL2 Copyright (c) Steve Scherf et al.
# Submitted via: CDex 1.51
#
DISCID=55099607
DTITLE=Richie Cole - S, Art Pepper - S, Roger Kellaway - P, Bob Magnusson - B, Billy Higgins - D - Richie Cole Meets Art Pepper
DYEAR=1982
DGENRE=Jazz
TTITLE0=Return to Alto Acres
TTITLE1=Things We Did Last Summer
TTITLE2=Art's Opus #2
TTITLE3=A and R
TTITLE4=Palo Alto Blues
TTITLE5=Broadway
TTITLE6=Art's Opus #2 (Alternate Take)
EXTD=YEAR: 1982
EXTT0=
EXTT1=
EXTT2=
EXTT3=
EXTT4=
EXTT5=
EXTT6=
PLAYORDER=
